<svg viewBox="0 0 241 48" width="140" fill="none" xmlns="http://www.w3.org/2000/svg" class="block h-[28px] w-[146px]"><path d="M162.276 12.746C161.187 12.746 160.098 12.746 159.008 12.746C158.282 12.746 157.628 12.9302 157.047 13.3722C156.176 14.0353 155.958 14.9931 155.958 16.0246C155.958 20.5556 155.958 25.1236 155.958 29.6546V34.1489C155.958 34.7015 156.394 35.1804 156.975 35.1804H160.315C160.86 35.1804 161.332 34.7383 161.332 34.1489V30.5756V29.6915V18.1243H166.234C166.779 18.1243 167.251 17.6823 167.251 17.0929V13.7774C167.251 13.2249 166.815 12.746 166.234 12.746H162.276Z" fill="#211F20"></path><path d="M44.2636 24.2026H32.0993C31.4457 24.2026 30.8647 24.6446 30.7557 25.3077C30.2474 28.4389 27.5603 30.8334 24.3286 30.8334C20.7337 30.8334 17.8288 27.8864 17.8288 24.2394C17.8288 20.9977 20.1164 18.3085 23.1666 17.7559C23.8565 17.6086 24.3649 17.056 24.3649 16.3192V4.01531C24.3649 2.94701 23.4934 2.09974 22.4404 2.17341C11.2927 3.16804 2.61426 12.6354 2.61426 24.1657C2.61426 36.3591 12.3458 46.2317 24.3649 46.2317C35.7304 46.2317 45.0625 37.3906 46.0429 26.155C46.1155 25.0498 45.3167 24.2026 44.2636 24.2026Z" fill="#3134FF"></path><path d="M46.0428 19.8924V4.60465C46.0428 3.27848 44.9535 2.17334 43.6463 2.17334H28.577C27.1971 2.17334 26.5072 3.86789 27.4876 4.82568L43.3921 20.9608C44.3725 21.9554 46.0428 21.2555 46.0428 19.8924Z" fill="#3134FF"></path><path d="M73.7122 35.6223C67.1398 35.6223 62.3467 30.686 62.3467 23.9815C62.3467 17.2401 67.1398 12.3038 73.7122 12.3038C78.9774 12.3038 83.1169 15.5087 84.4241 20.224C84.5694 20.7397 84.2063 21.2555 83.6616 21.2555H79.5947C79.3042 21.2555 79.0137 21.0713 78.8685 20.7766C77.9607 18.861 75.9998 17.5717 73.6396 17.5717C70.2626 17.5717 67.7571 20.2609 67.7571 23.9447C67.7571 27.6285 70.2626 30.3176 73.6396 30.3176C75.9635 30.3176 77.9607 29.0283 78.8685 27.1127C79.0137 26.818 79.2679 26.6338 79.5947 26.6338H83.6616C84.2063 26.6338 84.5694 27.1496 84.4241 27.6653C83.0806 32.4911 78.9411 35.6223 73.7122 35.6223Z" fill="#211F20"></path><path d="M87.2568 24.0184C87.2568 17.1665 92.1589 12.3407 98.8402 12.3407C105.594 12.3407 110.424 17.1665 110.424 24.0184C110.424 30.8702 105.558 35.6592 98.8402 35.6592C92.1589 35.6224 87.2568 30.8334 87.2568 24.0184ZM105.013 24.0184C105.013 20.2977 102.508 17.6454 98.8765 17.6454C95.2817 17.6454 92.7399 20.2977 92.7399 24.0184C92.7399 27.6653 95.2817 30.3914 98.8765 30.3914C102.508 30.3545 105.013 27.6653 105.013 24.0184Z" fill="#211F20"></path><path d="M138.057 11.1619V5.74672C138.057 5.30466 138.42 4.93628 138.855 4.93628H142.632C143.068 4.93628 143.431 5.30466 143.431 5.74672V12.7828H150.802C151.238 12.7828 151.601 13.1512 151.601 13.5932V16.9455C151.601 17.3875 151.238 17.7559 150.802 17.7559H143.431V26.3024C143.431 28.9915 144.52 30.2072 147.389 30.2072C148.26 30.2072 149.313 30.1704 150.729 30.023C151.201 29.9862 151.601 30.3545 151.601 30.8334V34.4436C151.601 34.8488 151.31 35.2172 150.875 35.254C149.277 35.4382 147.679 35.5119 146.336 35.5119C141.07 35.5119 138.057 32.6385 138.057 26.8549V17.7191V11.1619Z" fill="#211F20"></path><path d="M168.449 24.0184C168.449 17.1665 173.351 12.3407 180.033 12.3407C186.787 12.3407 191.616 17.1665 191.616 24.0184C191.616 30.8702 186.75 35.6592 180.033 35.6592C173.351 35.6224 168.449 30.8334 168.449 24.0184ZM186.169 24.0184C186.169 20.2977 183.664 17.6454 180.033 17.6454C176.438 17.6454 173.896 20.2977 173.896 24.0184C173.896 27.6653 176.438 30.3914 180.033 30.3914C183.7 30.3545 186.169 27.6653 186.169 24.0184Z" fill="#211F20"></path><path d="M200.803 5.70985V34.3699C200.803 34.8119 200.44 35.1803 200.004 35.1803H196.228C195.792 35.1803 195.429 34.8119 195.429 34.3699V5.70985C195.429 5.26779 195.792 4.89941 196.228 4.89941H200.004C200.44 4.89941 200.803 5.26779 200.803 5.70985Z" fill="#211F20"></path><path d="M211.696 5.70985V34.3699C211.696 34.8119 211.333 35.1803 210.898 35.1803H207.121C206.685 35.1803 206.322 34.8119 206.322 34.3699V5.70985C206.322 5.26779 206.685 4.89941 207.121 4.89941H210.898C211.333 4.89941 211.696 5.26779 211.696 5.70985Z" fill="#211F20"></path><path d="M133.699 29.8019C133.699 27.1496 133.699 24.4972 133.699 21.8449C133.699 21.0345 133.663 20.1872 133.554 19.3767C133.409 17.9769 132.901 16.6507 132.065 15.5087C130.54 13.4458 128.471 12.3775 126.001 12.3038C122.951 12.3038 119.865 12.3038 116.815 12.3038C116.306 12.3038 115.798 12.4143 115.326 12.6354C114.091 13.2248 113.619 14.2931 113.619 15.6193C113.619 20.6292 113.619 25.6761 113.619 30.686V34.1856C113.619 34.7382 114.055 35.2171 114.636 35.2171H118.085C118.63 35.2171 119.102 34.7751 119.102 34.1856V30.2808C119.102 26.0076 119.102 22.7658 119.102 18.5295C119.102 18.419 119.102 18.2716 119.102 18.1611C119.102 17.9401 119.175 17.8295 119.429 17.8295C121.208 17.8664 123.024 17.7927 124.803 17.9032C126.256 18.0137 127.345 18.7505 127.926 20.1503C128.289 21.0345 128.362 21.9186 128.362 22.8395C128.362 25.0498 128.362 31.6438 128.362 34.1856C128.362 34.7382 128.797 35.2171 129.378 35.2171H132.828C133.373 35.2171 133.845 34.7751 133.845 34.1856L133.699 29.8019Z" fill="#211F20"></path><path d="M232.503 28.5126C232.249 28.5126 231.995 28.6231 231.813 28.8073C230.688 30.0598 229.054 30.7965 227.129 30.7965C223.97 30.7965 221.61 28.7704 220.92 25.8602H226.839H233.411H237.841C238.313 25.8602 238.713 25.4919 238.749 25.013C238.785 24.5341 238.785 24.0552 238.785 23.5394C238.567 17.1665 233.302 12.267 227.02 12.3407C220.411 12.4143 215.582 17.2401 215.582 24.0183C215.582 30.8702 220.484 35.6592 227.165 35.6592C231.886 35.6592 235.662 33.3015 237.514 29.5809C237.768 29.102 237.405 28.5126 236.861 28.5126H232.503ZM227.129 17.2401C230.034 17.2401 232.213 18.861 233.121 21.3292H221.138C222.045 18.861 224.26 17.2401 227.129 17.2401Z" fill="#211F20"></path></svg>